<svg width="16" height="19" viewBox="0 0 16 19" fill="none" xmlns="http://www.w3.org/2000/svg">
<g clip-path="url(#clip0_2600_520)">
<path d="M15.3972 7.03279C15.2961 6.6514 15.0188 6.38052 14.6908 6.34445L10.2352 5.85083L8.47329 0.819348C8.34338 0.450605 8.04751 0.211914 7.71878 0.211914C7.39006 0.211914 7.09419 0.450605 6.96428 0.82021L5.2024 5.85083L0.746037 6.34445C0.418607 6.38139 0.142057 6.6514 0.0404122 7.03279C-0.0612328 7.41418 0.0326386 7.8325 0.280332 8.0962L3.64828 11.7L2.65515 17.0376C2.58248 17.43 2.70732 17.8357 2.97422 18.0711C3.11767 18.1975 3.28551 18.2619 3.45476 18.2619C3.60069 18.2619 3.74545 18.2139 3.87536 18.1191L7.71878 15.3164L11.5608 18.1191C11.8419 18.3254 12.1963 18.3066 12.4626 18.0711C12.7297 17.835 12.8544 17.4292 12.7817 17.0376L11.7886 11.7L15.1565 8.09692C15.4042 7.8325 15.4988 7.4149 15.3972 7.03279V7.03279Z" fill="#F1972E"/>
</g>
<defs>
<clipPath id="clip0_2600_520">
<rect width="15.4374" height="19" fill="white"/>
</clipPath>
</defs>
</svg>
