<svg width="108" height="19" viewBox="0 0 108 19" fill="none" xmlns="http://www.w3.org/2000/svg">
<g clip-path="url(#clip0_2600_519)">
<path d="M15.3972 7.03279C15.2961 6.6514 15.0188 6.38052 14.6908 6.34445L10.2352 5.85083L8.47329 0.819348C8.34338 0.450605 8.04751 0.211914 7.71878 0.211914C7.39006 0.211914 7.09419 0.450605 6.96428 0.82021L5.2024 5.85083L0.746037 6.34445C0.418607 6.38139 0.142057 6.6514 0.0404122 7.03279C-0.0612328 7.41418 0.0326386 7.8325 0.280332 8.0962L3.64828 11.7L2.65515 17.0376C2.58248 17.43 2.70732 17.8357 2.97422 18.0711C3.11767 18.1975 3.28551 18.2619 3.45476 18.2619C3.60069 18.2619 3.74545 18.2139 3.87536 18.1191L7.71878 15.3164L11.5608 18.1191C11.8419 18.3254 12.1963 18.3066 12.4626 18.0711C12.7297 17.835 12.8544 17.4292 12.7817 17.0376L11.7886 11.7L15.1565 8.09692C15.4042 7.8325 15.4988 7.4149 15.3972 7.03279V7.03279Z" fill="#F1972E"/>
</g>
<g clip-path="url(#clip1_2600_519)">
<path d="M38.3972 7.03279C38.2961 6.6514 38.0188 6.38052 37.6908 6.34445L33.2352 5.85083L31.4733 0.819348C31.3434 0.450605 31.0475 0.211914 30.7188 0.211914C30.3901 0.211914 30.0942 0.450605 29.9643 0.82021L28.2024 5.85083L23.746 6.34445C23.4186 6.38139 23.1421 6.6514 23.0404 7.03279C22.9388 7.41418 23.0326 7.8325 23.2803 8.0962L26.6483 11.7L25.6551 17.0376C25.5825 17.43 25.7073 17.8357 25.9742 18.0711C26.1177 18.1975 26.2855 18.2619 26.4548 18.2619C26.6007 18.2619 26.7454 18.2139 26.8754 18.1191L30.7188 15.3164L34.5608 18.1191C34.8419 18.3254 35.1963 18.3066 35.4626 18.0711C35.7297 17.835 35.8544 17.4292 35.7817 17.0376L34.7886 11.7L38.1565 8.09692C38.4042 7.8325 38.4988 7.4149 38.3972 7.03279V7.03279Z" fill="#F1972E"/>
</g>
<g clip-path="url(#clip2_2600_519)">
<path d="M61.3972 7.03279C61.2961 6.6514 61.0188 6.38052 60.6908 6.34445L56.2352 5.85083L54.4733 0.819348C54.3434 0.450605 54.0475 0.211914 53.7188 0.211914C53.3901 0.211914 53.0942 0.450605 52.9643 0.82021L51.2024 5.85083L46.746 6.34445C46.4186 6.38139 46.1421 6.6514 46.0404 7.03279C45.9388 7.41418 46.0326 7.8325 46.2803 8.0962L49.6483 11.7L48.6551 17.0376C48.5825 17.43 48.7073 17.8357 48.9742 18.0711C49.1177 18.1975 49.2855 18.2619 49.4548 18.2619C49.6007 18.2619 49.7454 18.2139 49.8754 18.1191L53.7188 15.3164L57.5608 18.1191C57.8419 18.3254 58.1963 18.3066 58.4626 18.0711C58.7297 17.835 58.8544 17.4292 58.7817 17.0376L57.7886 11.7L61.1565 8.09692C61.4042 7.8325 61.4988 7.4149 61.3972 7.03279V7.03279Z" fill="#F1972E"/>
</g>
<g clip-path="url(#clip3_2600_519)">
<path d="M84.3972 7.03279C84.2961 6.6514 84.0188 6.38052 83.6908 6.34445L79.2352 5.85083L77.4733 0.819348C77.3434 0.450605 77.0475 0.211914 76.7188 0.211914C76.3901 0.211914 76.0942 0.450605 75.9643 0.82021L74.2024 5.85083L69.746 6.34445C69.4186 6.38139 69.1421 6.6514 69.0404 7.03279C68.9388 7.41418 69.0326 7.8325 69.2803 8.0962L72.6483 11.7L71.6551 17.0376C71.5825 17.43 71.7073 17.8357 71.9742 18.0711C72.1177 18.1975 72.2855 18.2619 72.4548 18.2619C72.6007 18.2619 72.7454 18.2139 72.8754 18.1191L76.7188 15.3164L80.5608 18.1191C80.8419 18.3254 81.1963 18.3066 81.4626 18.0711C81.7297 17.835 81.8544 17.4292 81.7817 17.0376L80.7886 11.7L84.1565 8.09692C84.4042 7.8325 84.4988 7.4149 84.3972 7.03279V7.03279Z" fill="#F1972E"/>
</g>
<g clip-path="url(#clip4_2600_519)">
<path d="M107.397 7.03279C107.296 6.6514 107.019 6.38052 106.691 6.34445L102.235 5.85083L100.473 0.819348C100.343 0.450605 100.048 0.211914 99.7188 0.211914C99.3901 0.211914 99.0942 0.450605 98.9643 0.82021L97.2024 5.85083L92.746 6.34445C92.4186 6.38139 92.1421 6.6514 92.0404 7.03279C91.9388 7.41418 92.0326 7.8325 92.2803 8.0962L95.6483 11.7L94.6551 17.0376C94.5825 17.43 94.7073 17.8357 94.9742 18.0711C95.1177 18.1975 95.2855 18.2619 95.4548 18.2619C95.6007 18.2619 95.7454 18.2139 95.8754 18.1191L99.7188 15.3164L103.561 18.1191C103.842 18.3254 104.196 18.3066 104.463 18.0711C104.73 17.835 104.854 17.4292 104.782 17.0376L103.789 11.7L107.157 8.09692C107.404 7.8325 107.499 7.4149 107.397 7.03279V7.03279Z" fill="#F1972E"/>
</g>
<defs>
<clipPath id="clip0_2600_519">
<rect width="15.4374" height="19" fill="white"/>
</clipPath>
<clipPath id="clip1_2600_519">
<rect width="15.4374" height="19" fill="white" transform="translate(23)"/>
</clipPath>
<clipPath id="clip2_2600_519">
<rect width="15.4374" height="19" fill="white" transform="translate(46)"/>
</clipPath>
<clipPath id="clip3_2600_519">
<rect width="15.4374" height="19" fill="white" transform="translate(69)"/>
</clipPath>
<clipPath id="clip4_2600_519">
<rect width="15.4374" height="19" fill="white" transform="translate(92)"/>
</clipPath>
</defs>
</svg>
